<?xml version="1.0" standalone="no"?>
<!DOCTYPE svg PUBLIC "-//W3C//DTD SVG 20010904//EN"
 "http://www.w3.org/TR/2001/REC-SVG-20010904/DTD/svg10.dtd">
<svg version="1.0" xmlns="http://www.w3.org/2000/svg"
 width="693.000000pt" height="693.000000pt" viewBox="0 0 693.000000 693.000000"
 preserveAspectRatio="xMidYMid meet">

<g transform="translate(0.000000,693.000000) scale(0.100000,-0.100000)"
fill="#000000" stroke="none">
<path d="M4111 4453 c-5 -10 -54 -131 -109 -268 -56 -138 -142 -351 -192 -475
-51 -124 -129 -317 -175 -430 -45 -113 -113 -279 -150 -369 l-68 -163 -19 35
c-37 73 -424 976 -660 1542 l-55 130 -119 0 -119 0 1 -37 c0 -21 1 -461 2
-978 l2 -940 30 0 30 0 0 867 c0 510 4 863 9 857 5 -5 90 -198 189 -429 100
-231 249 -577 332 -770 83 -192 168 -390 188 -438 40 -97 52 -106 119 -90 l37
8 76 190 c43 105 127 312 187 460 61 149 181 444 267 657 86 213 162 400 169
415 10 22 13 -139 17 -848 l5 -874 113 -3 112 -3 -2 983 -3 983 -102 3 c-90 2
-103 1 -112 -15z"/>
<path d="M4805 4458 c-2 -7 -1 -452 3 -988 l7 -975 99 -3 c62 -2 103 1 110 8
8 8 11 130 11 388 l0 377 335 6 c306 5 341 8 408 28 284 84 442 283 442 556 0
135 -47 280 -119 370 -80 100 -232 190 -371 221 -102 23 -917 34 -925 12z
m817 -59 c150 -32 272 -149 330 -317 20 -58 23 -86 23 -212 0 -122 -4 -156
-22 -215 -44 -140 -138 -248 -260 -297 -55 -22 -71 -23 -360 -26 l-303 -3 0
534 c0 293 3 537 7 540 11 12 528 8 585 -4z"/>
<path d="M1738 3708 c-4 -745 -4 -754 -26 -833 -65 -231 -176 -342 -363 -362
-118 -12 -245 32 -316 110 -74 82 -119 246 -111 400 3 42 3 77 1 77 -3 0 -54
-25 -115 -56 l-110 -57 7 -56 c31 -250 261 -439 569 -467 134 -12 319 32 422
100 159 106 243 265 263 501 6 68 11 396 11 758 l0 637 -115 0 -114 0 -3 -752z"/>
</g>

 <style>
  @media (prefers-color-scheme: dark) {
    path, circle, rect, polygon { fill: white !important; stroke: white !important; }
  }
  @media (prefers-color-scheme: light) {
    path, circle, rect, polygon { fill: black !important; stroke: black !important; }
  }
</style>
 
</svg>
